<svg width="259" height="200" viewBox="0 0 259 200" xmlns="http://www.w3.org/2000/svg" xmlns:xlink="http://www.w3.org/1999/xlink">
    <defs>
        <path id="3rg0sro7ka" d="M0 0h11.908v13.883H0z"/>
        <path id="1ks0wlnicc" d="M0 0h46.235v51.915H0z"/>
        <path id="lx4g2j1spe" d="M0 0h40.635v39.725H0z"/>
        <path id="hxd6s0ywlg" d="M0 0h131.117v114.93H0z"/>
    </defs>
    <g fill="none" fill-rule="evenodd">
        <g transform="translate(157.731 186.117)">
            <mask id="ly8iah37db" fill="#fff">
                <use xlink:href="#3rg0sro7ka"/>
            </mask>
            <path d="M8.09 11.073c.785-.544 1.255-1.265 1.41-2.163V7.537H5.489c-1.087 0-1.894.165-2.42.493-.527.328-.79.846-.79 1.554 0 .708.267 1.269.802 1.683.536.415 1.252.622 2.15.622 1.12 0 2.074-.272 2.86-.816zm1.437 2.707v-1.917c-1.019 1.347-2.615 2.02-4.79 2.02-.95 0-1.782-.181-2.497-.544-.717-.362-1.27-.863-1.657-1.502A4.054 4.054 0 0 1 0 9.687C0 8.462.453 7.49 1.36 6.773c.905-.716 2.17-1.083 3.792-1.1h4.349v-.648c0-.967-.298-1.713-.894-2.24-.595-.527-1.462-.79-2.601-.79-1.38 0-2.787.492-4.22 1.476L.776 1.813C1.76 1.175 2.67.713 3.508.428 4.344.143 5.341 0 6.498 0c1.708 0 3.029.42 3.96 1.257.932.837 1.407 2.007 1.424 3.51l.026 9.013H9.527z" fill="#FEFEFE" mask="url(#ly8iah37db)"/>
        </g>
        <path d="M180.252 198.99c-1.052.673-2.123 1.01-3.21 1.01-1.087 0-1.967-.324-2.64-.971-.673-.648-1.01-1.628-1.01-2.94v-7.59h-1.941v-1.838h1.942v-3.678h2.432v3.678h4.194v1.839h-4.194v7.149c0 .76.139 1.303.415 1.631.276.329.69.492 1.242.492.656 0 1.364-.215 2.123-.647l.647 1.865zM199.434 187.528c.915.942 1.372 2.24 1.372 3.899v8.47H198.4v-7.823c0-1.156-.324-2.06-.97-2.707-.648-.647-1.541-.971-2.68-.971-1.33.017-2.382.466-3.158 1.347-.777.88-1.165 2.02-1.165 3.42v6.733h-2.408v-19.218h2.408v8.47c.914-1.986 2.657-2.996 5.229-3.031 1.605 0 2.864.47 3.78 1.411M207.368 188.836a4.295 4.295 0 0 0-1.63 1.723c-.39.734-.583 1.567-.583 2.5 0 .95.194 1.795.583 2.537a4.18 4.18 0 0 0 1.63 1.723c.699.406 1.497.609 2.395.609.88 0 1.67-.203 2.368-.61.7-.404 1.243-.979 1.631-1.722.389-.742.583-1.588.583-2.538 0-.932-.194-1.765-.583-2.499a4.293 4.293 0 0 0-1.63-1.723c-.7-.414-1.49-.621-2.369-.621-.898 0-1.696.207-2.395.621m6.032-1.838a6.338 6.338 0 0 1 2.485 2.447c.595 1.045.893 2.24.893 3.588 0 1.346-.298 2.546-.893 3.6a6.314 6.314 0 0 1-2.485 2.46c-1.062.588-2.274.881-3.637.881-1.381 0-2.602-.293-3.663-.88a6.33 6.33 0 0 1-2.485-2.448c-.596-1.045-.893-2.25-.893-3.613 0-1.347.297-2.543.893-3.588a6.33 6.33 0 0 1 2.485-2.447c1.06-.587 2.282-.881 3.663-.881 1.363 0 2.575.294 3.637.88M240.49 187.542c.897.95 1.346 2.244 1.346 3.885v8.47h-2.434v-7.823c0-1.157-.314-2.063-.944-2.72-.63-.655-1.498-.984-2.602-.984-1.294.035-2.313.492-3.055 1.373s-1.113 2.012-1.113 3.393v6.76h-2.433v-7.822c0-1.157-.31-2.063-.932-2.72-.621-.655-1.493-.984-2.615-.984-1.294.035-2.316.492-3.067 1.373-.75.881-1.126 2.012-1.126 3.393v6.76h-2.408v-13.701h2.408v2.874c.897-1.933 2.597-2.917 5.1-2.952 1.259 0 2.307.302 3.144.906.838.605 1.403 1.45 1.696 2.539.846-2.262 2.623-3.41 5.333-3.445 1.57 0 2.804.475 3.702 1.425M254.857 192.126c-.07-1.243-.484-2.223-1.243-2.94-.76-.716-1.76-1.075-3.002-1.075-1.209 0-2.214.363-3.016 1.088-.803.725-1.282 1.701-1.437 2.927h8.698zm.544-4.131c1.086 1.252 1.63 2.991 1.63 5.219 0 .346-.008.604-.026.777h-10.82c.19 1.226.703 2.202 1.54 2.927.837.725 1.868 1.087 3.094 1.087.81 0 1.566-.146 2.264-.44a5.443 5.443 0 0 0 1.826-1.243l1.32 1.373a6.918 6.918 0 0 1-2.434 1.683c-.949.398-2.002.596-3.158.596-1.346 0-2.54-.289-3.585-.867a6.095 6.095 0 0 1-2.434-2.448c-.578-1.053-.867-2.254-.867-3.6 0-1.348.29-2.543.867-3.588a6.322 6.322 0 0 1 2.421-2.46c1.036-.597 2.218-.895 3.547-.895 2.122 0 3.727.627 4.815 1.879z" fill="#FEFEFE"/>
        <g transform="translate(0 125.681)">
            <mask id="htz6kulffd" fill="#fff">
                <use xlink:href="#1ks0wlnicc"/>
            </mask>
            <path d="M13.294 48.581c-4.133-2.223-7.382-5.306-9.747-9.25C1.183 35.387 0 30.93 0 25.957c0-4.97 1.183-9.429 3.547-13.373 2.365-3.944 5.614-7.027 9.747-9.25C17.426 1.111 22.073 0 27.233 0c4.347 0 8.277.765 11.789 2.294a24.099 24.099 0 0 1 5.87 3.606c1.736 1.452 1.756 4.122.094 5.658l-1.938 1.79a3.781 3.781 0 0 1-4.962.144c-2.93-2.397-6.356-3.597-10.28-3.597-3.106 0-5.876.681-8.313 2.044a14.525 14.525 0 0 0-5.698 5.7c-1.361 2.438-2.042 5.211-2.042 8.318 0 3.108.68 5.88 2.042 8.318a14.515 14.515 0 0 0 5.698 5.7c2.437 1.364 5.207 2.044 8.313 2.044 3.924 0 7.35-1.212 10.28-3.639a3.78 3.78 0 0 1 4.978.13l1.944 1.797c1.657 1.53 1.641 4.186-.079 5.645a23.589 23.589 0 0 1-5.943 3.668c-3.536 1.53-7.478 2.295-11.825 2.295-5.112 0-9.735-1.111-13.867-3.334" fill="#FEFEFE" mask="url(#htz6kulffd)"/>
        </g>
        <path d="M70.089 168.454c1.411-.843 2.432-2.067 3.063-3.67a1.34 1.34 0 0 0 .09-.49v-2.4c0-.714-.579-1.292-1.292-1.292h-6.376c-4.587 0-6.88 1.506-6.88 4.518 0 1.434.56 2.57 1.683 3.406 1.123.836 2.664 1.254 4.623 1.254 1.91 0 3.607-.441 5.089-1.326m9.531-26.603c3.2 2.844 4.802 7.134 4.802 12.87v20.723c0 .714-.579 1.292-1.292 1.292h-7.88a1.292 1.292 0 0 1-1.291-1.292c0-1.093-1.276-1.7-2.109-.993-2.25 1.905-5.465 2.858-9.645 2.858-2.963 0-5.53-.5-7.704-1.505-2.175-1.004-3.834-2.39-4.98-4.16-1.147-1.767-1.72-3.775-1.72-6.022 0-3.586 1.348-6.406 4.048-8.462 2.699-2.054 6.868-3.084 12.506-3.084h7.505c.8 0 1.393-.721 1.276-1.514-.253-1.714-.958-3.086-2.116-4.114-1.481-1.314-3.703-1.971-6.665-1.971-2.055 0-4.073.321-6.055.967-1.458.475-2.755 1.072-3.889 1.792a1.286 1.286 0 0 1-1.841-.493l-2.805-5.464a1.301 1.301 0 0 1 .48-1.701c1.885-1.163 4.068-2.088 6.55-2.775a33.864 33.864 0 0 1 9.065-1.219c5.972 0 10.558 1.423 13.76 4.267M106.315 139.018c1.91-.804 4.068-1.271 6.471-1.398a1.303 1.303 0 0 1 1.377 1.294v7.61c0 .747-.63 1.335-1.374 1.29a20.401 20.401 0 0 0-1.135-.048c-3.201 0-5.71.897-7.525 2.69-1.816 1.792-2.723 4.481-2.723 8.066v16.922c0 .713-.578 1.292-1.292 1.292h-8.596a1.292 1.292 0 0 1-1.292-1.292V139.45c0-.713.578-1.292 1.292-1.292h8.095c.713 0 1.291.579 1.291 1.292v.55c0 1.098 1.27 1.682 2.118.984.959-.79 2.057-1.444 3.293-1.966M127.565 148.196c-1.308 1.092-2.23 2.487-2.765 4.187a1.3 1.3 0 0 0 1.234 1.693h15.738c.889 0 1.5-.875 1.224-1.72-.537-1.652-1.452-3.026-2.746-4.124-1.72-1.458-3.823-2.186-6.306-2.186-2.533 0-4.659.716-6.38 2.15m24.962 12.406H126.32c-.92 0-1.559.942-1.199 1.789.665 1.564 1.719 2.856 3.16 3.876 1.96 1.387 4.396 2.08 7.31 2.08 2.007 0 3.787-.299 5.34-.896a12.439 12.439 0 0 0 3.435-2.03 1.282 1.282 0 0 1 1.756.125l4.275 4.637c.478.519.448 1.32-.054 1.816-3.59 3.54-8.603 5.31-15.038 5.31-4.348 0-8.195-.847-11.538-2.545-3.345-1.697-5.925-4.051-7.74-7.063-1.816-3.012-2.724-6.43-2.724-10.254 0-3.776.897-7.183 2.688-10.218 1.791-3.035 4.252-5.402 7.382-7.099 3.128-1.697 6.629-2.546 10.499-2.546 3.774 0 7.19.813 10.248 2.438 3.057 1.626 5.458 3.956 7.203 6.992 1.743 3.036 2.615 6.561 2.615 10.576 0 .109-.04.712-.123 1.81a1.298 1.298 0 0 1-1.289 1.202M203.526 174.646l-.049-20.446c-.005-2.127-2.806-2.895-3.894-1.067l-10.278 17.273a2.093 2.093 0 0 1-1.8 1.024h-2.863c-.731 0-1.41-.382-1.79-1.007l-10.196-16.771c-1.1-1.81-3.883-1.03-3.883 1.09v19.899a2.095 2.095 0 0 1-2.095 2.095h-6.704a2.095 2.095 0 0 1-2.094-2.095v-46.004c0-1.157.938-2.095 2.094-2.095h6.325c.735 0 1.416.384 1.795 1.014l16.358 27.174c.817 1.358 2.787 1.351 3.595-.012l16.094-27.15a2.093 2.093 0 0 1 1.802-1.026h6.25c1.154 0 2.09.934 2.094 2.088l.132 46.005a2.095 2.095 0 0 1-2.094 2.101h-6.705a2.095 2.095 0 0 1-2.094-2.09" fill="#FEFEFE"/>
        <g transform="translate(218.365 137.584)">
            <mask id="r2m5ga74cf" fill="#fff">
                <use xlink:href="#lx4g2j1spe"/>
            </mask>
            <path d="M14.262 10.612c-1.309 1.092-2.23 2.487-2.765 4.187a1.3 1.3 0 0 0 1.234 1.693H28.47c.889 0 1.5-.875 1.224-1.72-.537-1.652-1.452-3.026-2.746-4.124-1.72-1.458-3.824-2.186-6.307-2.186-2.533 0-4.658.716-6.378 2.15m24.96 12.406H13.018c-.92 0-1.56.942-1.199 1.789.665 1.564 1.719 2.855 3.16 3.875 1.96 1.388 4.396 2.08 7.31 2.08 2.007 0 3.787-.298 5.34-.896 1.21-.465 2.355-1.142 3.435-2.03a1.282 1.282 0 0 1 1.756.126l4.274 4.637c.478.518.448 1.32-.053 1.816-3.59 3.54-8.603 5.31-15.038 5.31-4.348 0-8.195-.847-11.538-2.545-3.345-1.697-5.925-4.051-7.74-7.063C.907 27.105 0 23.687 0 19.863c0-3.776.896-7.183 2.688-10.218 1.791-3.036 4.251-5.402 7.381-7.1C13.198.85 16.7 0 20.57 0c3.774 0 7.19.813 10.248 2.438 3.057 1.626 5.458 3.956 7.203 6.991 1.743 3.036 2.615 6.562 2.615 10.577 0 .108-.041.712-.123 1.81a1.298 1.298 0 0 1-1.29 1.202" fill="#FEFEFE" mask="url(#r2m5ga74cf)"/>
        </g>
        <g transform="translate(66.989)">
            <mask id="9nm2wuti6h" fill="#fff">
                <use xlink:href="#hxd6s0ywlg"/>
            </mask>
            <path d="M92.926 70.394h-1.44a.05.05 0 0 1 .004-.007H78.323a4.527 4.527 0 0 0-4.44 3.662v30.375s.002 6.597-3.542 9.703v.027c5.648-.857 10.892-2.43 15.725-4.73 7.71-3.672 13.984-8.86 18.825-15.564l.145-.202c6.952-9.73-.157-23.264-12.11-23.264M73.883 10.238v30.626a4.527 4.527 0 0 0 4.44 3.662h14.858c11.798-.192 18.756-13.594 11.855-23.254-.048-.067-.096-.135-.145-.201-4.84-6.705-11.115-11.893-18.825-15.564-4.833-2.3-10.077-3.874-15.725-4.731v.036c3.792 3.022 3.542 9.426 3.542 9.426M59.183.08A74.713 74.713 0 0 0 55.838 0C44.456 0 34.565 2.422 26.164 7.263 17.76 12.106 11.3 18.89 6.78 27.615 2.259 36.342 0 46.29 0 57.465 0 68.64 2.259 78.59 6.78 87.316c4.52 8.727 10.981 15.512 19.384 20.353 8.4 4.843 18.292 7.262 29.674 7.262 1.143 0 2.268-.03 3.383-.08 10.69-.818 10.678-10.426 10.678-10.426l-.088-18.136a4.53 4.53 0 0 1-4.528 4.53h-16.79a4.53 4.53 0 0 1-4.528-4.53v-11.37a4.53 4.53 0 0 0-4.528-4.531H28.073a4.529 4.529 0 0 1-4.528-4.53v-16.8a4.53 4.53 0 0 1 4.528-4.53h11.364a4.53 4.53 0 0 0 4.528-4.531v-11.37a4.529 4.529 0 0 1 4.528-4.53h16.79a4.53 4.53 0 0 1 4.528 4.53l.088-18.388S70.412.826 59.183.08m71.934 43.734v28.239c0 5.916-7.37 8.622-11.195 4.111L107.95 62.045a6.357 6.357 0 0 1 0-8.223l11.973-14.12c3.825-4.51 11.195-1.803 11.195 4.112" fill="#FEFEFE" mask="url(#9nm2wuti6h)"/>
        </g>
    </g>
</svg>
